# xmcd
#
# Track frame offsets: 
#        150
#        24266
#        41679
#        69963
#        82487
#        109534
#        129382
#        142808
#        193465
#        215949
#        250105
#
# Disc length: 3420 seconds
#
# Revision: 0
# Processed by: cddbd v1.5.2PL0 Copyright (c) Steve Scherf et al.
# Submitted via: ExactAudioCopy v1.0b1
#
DISCID=a00d5a0b
DTITLE=The White Soots - The White Soots
DYEAR=2010
DGENRE=Indie
TTITLE0=Watch the Horizon
TTITLE1=If I Go
TTITLE2=The Road
TTITLE3=Don't Shoot
TTITLE4=Ghost
TTITLE5=You're Evil
TTITLE6=Where Did You Go
TTITLE7=Give Me Back My Land
TTITLE8=Go Way
TTITLE9=The Fool
TTITLE10=Missing Man
EXTD=
EXTT0=
EXTT1=
EXTT2=
EXTT3=
EXTT4=
EXTT5=
EXTT6=
EXTT7=
EXTT8=
EXTT9=
EXTT10=
PLAYORDER=
